<svg xmlns="http://www.w3.org/2000/svg" width="187.124" height="190.682" viewBox="0 0 187.124 190.682">
  <g id="Logo_Centered_-_Light" data-name="Logo Centered - Light" transform="translate(0.5 0.5)">
    <path id="Union_20" data-name="Union 20" d="M-11493-16597.979a5.578,5.578,0,0,0,5.559-5.584,13.123,13.123,0,0,1-5.559,1.234,13.233,13.233,0,0,1-13.186-13.244,13.233,13.233,0,0,1,13.186-13.246,13.229,13.229,0,0,1,13.181,13.246v12.01a13.227,13.227,0,0,1-13.181,13.244Zm-5.563-17.594a5.583,5.583,0,0,0,5.563,5.588,5.579,5.579,0,0,0,5.559-5.588,5.579,5.579,0,0,0-5.559-5.59A5.583,5.583,0,0,0-11498.561-16615.572Zm46.392,0a13.23,13.23,0,0,1,13.181-13.25,13.234,13.234,0,0,1,13.186,13.25v12.975h-7.622v-12.975a5.583,5.583,0,0,0-5.563-5.59,5.579,5.579,0,0,0-5.559,5.59,5.581,5.581,0,0,0,5.559,5.588,5.487,5.487,0,0,0,3.373-1.154v8.367a12.91,12.91,0,0,1-3.373.443A13.228,13.228,0,0,1-11452.169-16615.572Zm-108.153,0a13.234,13.234,0,0,1,13.186-13.25,13.23,13.23,0,0,1,13.182,13.25v12.975h-7.623v-12.975a5.579,5.579,0,0,0-5.559-5.59,5.583,5.583,0,0,0-5.562,5.59,5.585,5.585,0,0,0,5.563,5.588,5.484,5.484,0,0,0,3.369-1.154v8.367a12.886,12.886,0,0,1-3.369.443A13.233,13.233,0,0,1-11560.322-16615.572Zm167.1,12.986v-15.014a3.563,3.563,0,0,0-3.55-3.566,3.567,3.567,0,0,0-3.555,3.566v15.014h-7.622v-15.014a3.563,3.563,0,0,0-3.55-3.566,3.567,3.567,0,0,0-3.555,3.566v15.014h-7.622v-15.014a11.216,11.216,0,0,1,11.177-11.227,11.091,11.091,0,0,1,7.361,2.793,11.1,11.1,0,0,1,7.365-2.793,11.212,11.212,0,0,1,11.172,11.227v15.014Zm-69.178,0v-15.014a3.566,3.566,0,0,0-3.554-3.566,3.563,3.563,0,0,0-3.551,3.566v15.014h-7.622v-33.479h7.622v7.824a11.015,11.015,0,0,1,3.551-.586,11.213,11.213,0,0,1,11.172,11.227v15.014Zm-53.735,0v-15.014a3.563,3.563,0,0,0-3.55-3.566,3.563,3.563,0,0,0-3.55,3.566v15.014h-7.623v-15.014a11.213,11.213,0,0,1,11.173-11.227,11.216,11.216,0,0,1,11.177,11.227v15.014Zm133.534,0v-24.969h7.622v24.969Zm-.775-31.428a4.6,4.6,0,0,1,4.591-4.611,4.6,4.6,0,0,1,4.586,4.611,4.6,4.6,0,0,1-4.586,4.605A4.6,4.6,0,0,1-11383.375-16634.018Zm-149.616-85.135a60.914,60.914,0,0,1,60.844-60.848,60.918,60.918,0,0,1,60.849,60.848v55.348l-7.248-1.348v-54a53.661,53.661,0,0,0-53.6-53.6,53.661,53.661,0,0,0-53.6,53.6,53.661,53.661,0,0,0,53.6,53.6,53.614,53.614,0,0,0,16.533-2.6l12.735,2.371a60.515,60.515,0,0,1-9.812,4.3,60.965,60.965,0,0,1-19.456,3.176A60.914,60.914,0,0,1-11532.991-16719.152Zm103.356,51.938v-51.937a42.557,42.557,0,0,0-42.513-42.512,42.559,42.559,0,0,0-42.512,42.512,42.562,42.562,0,0,0,42.512,42.512,42.489,42.489,0,0,0,16.546-3.344v7.766a49.643,49.643,0,0,1-16.546,2.822,49.818,49.818,0,0,1-49.76-49.756,49.815,49.815,0,0,1,49.76-49.756,49.811,49.811,0,0,1,49.756,49.756v53.285Zm-11.055-2.061v-49.877a31.493,31.493,0,0,0-31.458-31.457,31.492,31.492,0,0,0-31.453,31.457,31.491,31.491,0,0,0,31.453,31.453,31.448,31.448,0,0,0,16.546-4.67v8.229a38.759,38.759,0,0,1-16.546,3.689,38.75,38.75,0,0,1-38.7-38.7,38.748,38.748,0,0,1,38.7-38.7,38.744,38.744,0,0,1,38.7,38.7v51.225Zm-11.075-2.059v-47.818a20.4,20.4,0,0,0-20.383-20.379,20.4,20.4,0,0,0-20.378,20.379,20.4,20.4,0,0,0,20.378,20.379,20.346,20.346,0,0,0,16.546-8.465v10.225a27.58,27.58,0,0,1-16.546,5.486,27.654,27.654,0,0,1-27.621-27.625,27.65,27.65,0,0,1,27.621-27.621,27.654,27.654,0,0,1,27.626,27.621v49.166Z" transform="translate(11560.322 16780)" fill="#1b1c1d" stroke="rgba(0,0,0,0)" stroke-width="1"/>
  </g>
</svg>
